<?xml version="1.0" encoding="UTF-8" standalone="no"?>
<!DOCTYPE svg PUBLIC "-//W3C//DTD SVG 1.1//EN" "http://www.w3.org/Graphics/SVG/1.1/DTD/svg11.dtd">
<svg width="100%" height="100%" viewBox="0 0 143 148" version="1.1" xmlns="http://www.w3.org/2000/svg" xmlns:xlink="http://www.w3.org/1999/xlink" xml:space="preserve" xmlns:serif="http://www.serif.com/" style="fill-rule:evenodd;clip-rule:evenodd;stroke-miterlimit:10;">
    <g id="Page-1" serif:id="Page 1" transform="matrix(0.169707,0,0,0.247476,0,0)">
        <rect x="0" y="0" width="841.89" height="595.276" style="fill:none;"/>
        <clipPath id="_clip1">
            <rect x="0" y="0" width="841.89" height="595.276"/>
        </clipPath>
        <g clip-path="url(#_clip1)">
            <g id="Layer-1" serif:id="Layer 1" transform="matrix(24.552056,0,0,16.836633,-106.064882,-4994.418844)">
                <g transform="matrix(1,0,0,1,24.2103,324.347)">
                    <path d="M0,5.835L-5.475,5.835C-5.691,5.835 -5.866,5.66 -5.866,5.444L-5.866,0.391C-5.866,0.175 -5.691,0 -5.475,0L0,0C0.216,0 0.391,0.175 0.391,0.391L0.391,5.444C0.391,5.66 0.216,5.835 0,5.835" style="fill:rgb(50,183,234);fill-rule:nonzero;"/>
                </g>
                <g transform="matrix(1,0,0,1,18.5191,320.6227)">
                    <path d="M0,-12.381L0.022,-12.462C0.192,-13.105 1.184,-15.703 2.596,-15.703C3.972,-15.703 4.9,-13.144 5.051,-12.53L5.08,-12.404L12.05,9.308C12.102,9.47 12.252,9.579 12.422,9.579L18.172,9.579C18.437,9.579 18.625,9.321 18.544,9.069L11.108,-14.097C10.978,-14.597 10.535,-16.116 9.597,-17.659C7.911,-20.432 5.425,-21.96 2.596,-21.96C-2.617,-21.96 -5.269,-17.018 -6.029,-14.055L-12.641,9.081C-12.712,9.331 -12.525,9.579 -12.265,9.579L-6.57,9.579C-6.396,9.579 -6.243,9.464 -6.195,9.296L0,-12.381Z" style="fill:none;fill-rule:nonzero;stroke:rgb(105,204,225);stroke-width:0.33px;"/>
                </g>
            </g>
        </g>
    </g>
</svg>
