<?xml version="1.0" encoding="UTF-8" standalone="no"?>
<!DOCTYPE svg PUBLIC "-//W3C//DTD SVG 1.1//EN" "http://www.w3.org/Graphics/SVG/1.1/DTD/svg11.dtd">
<svg width="100%" height="100%" viewBox="0 0 2242 492" version="1.1" xmlns="http://www.w3.org/2000/svg" xmlns:xlink="http://www.w3.org/1999/xlink" xml:space="preserve" xmlns:serif="http://www.serif.com/" style="fill-rule:evenodd;clip-rule:evenodd;stroke-linejoin:round;stroke-miterlimit:2;">
    <g id="Page-1" serif:id="Page 1" transform="matrix(2.662907,0,0,0.825359,0,0)">
        <rect x="0" y="0" width="841.89" height="595.276" style="fill:none;"/>
        <g id="Layer-1" serif:id="Layer 1" transform="matrix(1.564706,0,0,5.048306,0,0)">
            <g transform="matrix(1,0,0,1,421.4446,11.1679)">
                <path d="M0,18.085L-16.971,18.085C-17.64,18.085 -18.182,17.543 -18.182,16.874L-18.182,1.211C-18.182,0.542 -17.64,0 -16.971,0L0,0C0.669,0 1.211,0.542 1.211,1.211L1.211,16.874C1.211,17.543 0.669,18.085 0,18.085" style="fill:rgb(3,40,58);fill-rule:nonzero;"/>
            </g>
            <g transform="matrix(1,0,0,1,175.3955,44.8105)">
                <path d="M0,44.406C-6.963,49.784 -15.374,48.462 -18.105,45.19C-19.959,42.968 -19.651,37.197 -14.95,33.208C-12.101,30.791 -1.482,28.99 7.96,28.531C8.799,28.49 9.423,29.304 9.166,30.103C7.929,33.938 5.202,40.385 0,44.406M-4.932,-20.949C-27.762,-21.833 -40.672,-13.896 -50.307,-5.058C-51.081,-4.347 -52.326,-4.901 -52.326,-5.952L-52.326,-17.494C-52.326,-18.163 -52.868,-18.705 -53.537,-18.705L-70.899,-18.705C-71.568,-18.705 -72.11,-18.163 -72.11,-17.494L-72.11,62.936C-72.11,63.605 -71.568,64.147 -70.899,64.147L-53.537,64.147C-52.868,64.147 -52.326,63.605 -52.326,62.936L-52.326,32.986C-52.326,32.907 -52.319,32.83 -52.305,32.752C-51.079,26.079 -48.297,18.675 -42,12.228C-33.252,3.27 -25.005,-3.515 -5.626,-2.783C4.265,-2.405 8.583,3.732 10.457,8.614C10.759,9.401 10.212,10.255 9.369,10.276C0.596,10.503 -17.93,11.894 -26.711,19.345C-38.341,29.212 -40.791,46.383 -32.063,56.84C-27.487,62.32 -20.231,65.727 -12.153,66.186C-11.528,66.221 -10.903,66.239 -10.277,66.239C-2.676,66.238 4.856,63.629 11.116,58.792C11.374,58.592 11.622,58.386 11.872,58.182L11.872,62.841C11.872,63.51 12.414,64.052 13.083,64.052L28.842,64.052C29.511,64.052 30.053,63.51 30.053,62.841L30.053,14.622C30.053,0.406 19.198,-20.029 -4.932,-20.949" style="fill:rgb(3,40,58);fill-rule:nonzero;"/>
            </g>
            <g transform="matrix(1,0,0,1,219.7642,23.3143)">
                <path d="M0,85.633C-0.669,85.634 -1.211,85.099 -1.212,84.43C-1.22,78.09 -1.255,48.671 -1.255,43.411L-1.255,43.045C-1.266,37.615 -1.3,21.089 9.916,9.85C16.439,3.313 25.25,-0.001 36.101,-0.001C56.126,-0.001 65.423,10.194 69.696,18.747C74.439,28.239 74.439,38.486 74.439,43.411C74.439,51.662 74.471,78.398 74.478,84.397C74.479,85.065 73.938,85.6 73.269,85.6L54.273,85.623C53.605,85.624 53.062,85.091 53.061,84.423C53.054,78.421 53.022,51.667 53.022,43.411C53.022,26.493 49.319,20.204 36.101,20.204C30.736,20.204 27.62,22.086 24.988,24.725C19.693,30.031 20.156,39.647 20.162,43.004C20.162,43.004 20.197,78.068 20.205,84.406C20.206,85.075 19.664,85.611 18.996,85.612L0,85.633Z" style="fill:rgb(3,40,58);fill-rule:nonzero;"/>
            </g>
            <g transform="matrix(1,0,0,1,365.9813,45.8048)">
                <path d="M0,30.25C-1.073,33.044 -2.708,35.575 -4.679,37.683C-8.696,41.9 -14.096,44.069 -19.341,43.789C-24.612,43.573 -29.47,40.906 -32.92,36.716C-36.397,32.557 -38.362,27.032 -38.339,21.373C-38.362,15.715 -36.397,10.19 -32.92,6.031C-29.47,1.841 -24.612,-0.826 -19.341,-1.042C-14.096,-1.322 -8.696,0.847 -4.679,5.064C-2.708,7.172 -1.073,9.703 0,12.497C1.066,15.293 1.628,18.307 1.671,21.373C1.628,24.44 1.066,27.454 0,30.25M3.424,-33.866L3.424,-16.87C3.424,-15.909 2.356,-15.327 1.557,-15.861C0.154,-16.798 -1.314,-17.653 -2.848,-18.406C-7.905,-20.915 -13.619,-22.33 -19.341,-22.442C-25.061,-22.58 -30.889,-21.413 -36.149,-19.084C-41.413,-16.761 -46.143,-13.359 -49.962,-9.194C-53.774,-5.024 -56.773,-0.167 -58.749,5.061C-60.719,10.291 -61.713,15.852 -61.753,21.373C-61.713,26.895 -60.719,32.456 -58.749,37.686C-56.773,42.914 -53.774,47.771 -49.962,51.941C-46.143,56.106 -41.413,59.508 -36.149,61.832C-30.889,64.16 -25.061,65.327 -19.341,65.189C-13.619,65.077 -7.905,63.662 -2.848,61.153C-1.314,60.4 0.154,59.545 1.557,58.608C2.356,58.074 3.424,58.656 3.424,59.617L3.424,61.93C3.424,62.598 3.966,63.14 4.634,63.14L21.605,63.14C22.274,63.14 22.816,62.598 22.816,61.93L22.816,-33.866C22.816,-34.535 22.274,-35.077 21.605,-35.077L4.634,-35.077C3.966,-35.077 3.424,-34.535 3.424,-33.866" style="fill:rgb(3,40,58);fill-rule:nonzero;"/>
            </g>
            <g transform="matrix(1,0,0,1,64.5756,39.3382)">
                <path d="M0,43.183C-3.45,47.372 -8.308,50.039 -13.58,50.255C-18.825,50.536 -24.225,48.366 -28.241,44.15C-30.213,42.041 -31.847,39.51 -32.92,36.717C-33.987,33.92 -34.549,30.907 -34.591,27.84C-34.549,24.773 -33.987,21.76 -32.92,18.964C-31.847,16.17 -30.213,13.639 -28.241,11.53C-24.225,7.314 -18.825,5.145 -13.58,5.425C-8.308,5.641 -3.45,8.308 0,12.497C3.476,16.656 5.441,22.181 5.419,27.84C5.441,33.499 3.476,39.024 0,43.183M25.829,11.528C23.853,6.3 20.854,1.443 17.042,-2.727C13.222,-6.893 8.493,-10.294 3.228,-12.618C-2.031,-14.946 -7.859,-16.113 -13.58,-15.976C-19.302,-15.863 -25.016,-14.449 -30.072,-11.94C-31.606,-11.187 -33.074,-10.331 -34.478,-9.394C-35.277,-8.861 -36.344,-9.442 -36.344,-10.403L-36.344,-27.399C-36.344,-28.068 -36.887,-28.61 -37.555,-28.61L-54.526,-28.61C-55.195,-28.61 -55.737,-28.068 -55.737,-27.399L-55.737,68.395C-55.737,69.064 -55.195,69.606 -54.526,69.606L-37.555,69.606C-36.887,69.606 -36.344,69.064 -36.344,68.395L-36.344,66.083C-36.344,65.122 -35.277,64.541 -34.478,65.075C-33.074,66.012 -31.606,66.867 -30.072,67.62C-25.016,70.129 -19.302,71.543 -13.58,71.656C-7.859,71.793 -2.031,70.626 3.228,68.298C8.493,65.974 13.222,62.573 17.042,58.408C20.854,54.237 23.853,49.38 25.829,44.152C27.798,38.923 28.792,33.362 28.833,27.84C28.792,22.319 27.798,16.757 25.829,11.528" style="fill:rgb(3,40,58);fill-rule:nonzero;"/>
            </g>
            <g transform="matrix(1,0,0,1,421.4446,39.4273)">
                <path d="M0,69.441L-16.971,69.441C-17.64,69.441 -18.182,68.899 -18.182,68.23L-18.182,1.211C-18.182,0.542 -17.64,0 -16.971,0L0,0C0.669,0 1.211,0.542 1.211,1.211L1.211,68.23C1.211,68.899 0.669,69.441 0,69.441" style="fill:rgb(0,189,255);fill-rule:nonzero;"/>
            </g>
            <g transform="matrix(1,0,0,1,488.8101,90.8751)">
                <path d="M0,18.085L-16.971,18.085C-17.64,18.085 -18.182,17.543 -18.182,16.874L-18.182,1.211C-18.182,0.542 -17.64,0 -16.971,0L0,0C0.669,0 1.211,0.542 1.211,1.211L1.211,16.874C1.211,17.543 0.669,18.085 0,18.085" style="fill:rgb(3,40,58);fill-rule:nonzero;"/>
            </g>
            <g transform="matrix(1,0,0,1,471.1697,79.3322)">
                <path d="M0,-38.378L0.067,-38.628C0.594,-40.622 3.67,-48.676 8.047,-48.676C12.312,-48.676 15.187,-40.744 15.656,-38.84L15.747,-38.449L37.349,28.849C37.51,29.35 37.976,29.69 38.502,29.69L56.326,29.69C57.147,29.69 57.73,28.89 57.479,28.109L34.429,-43.698C34.027,-45.245 32.653,-49.956 29.746,-54.738C24.521,-63.334 16.816,-68.068 8.047,-68.068C-8.111,-68.068 -16.333,-52.75 -18.686,-43.567L-39.181,28.146C-39.402,28.92 -38.821,29.69 -38.017,29.69L-20.366,29.69C-19.825,29.69 -19.35,29.331 -19.201,28.812L0,-38.378Z" style="fill:rgb(0,243,255);fill-rule:nonzero;"/>
            </g>
        </g>
    </g>
</svg>
